Release Information:

A.Scanner.Darkly.2006.720p.BRRip.XviD.AC3-PsychoLogic

Source                           : A.Scanner.Darkly.2006.1080p.BluRay.X264-MySiLU
Subtitles                        : Croatian, Dutch, English, French, Polish, Portuguese, Swedish
Language                         : English
Encoded By                       : PsychoLogic
Sample Included                  : Yes

Movie Information                : http://www.imdb.com/title/tt0405296/
Genre                            : Animation | Crime | Drama
Director                         : Richard Linklater
Cast                             : Keanu Reeves, Winona Ryder and Robert Downey Jr.
Plot                             : An undercover cop in a not-too-distant future becomes involved with a dangerous new drug and begins to lose his own identity as a result. 

General
Format                           : AVI
Format/Info                      : Audio Video Interleave
Format profile                   : OpenDML
File size                        : 2.43 GiB
Duration                         : 1h 40mn
Overall bit rate                 : 3 459 Kbps
Writing application              : VirtualDubMod 1.5.10.2 (build 2540/release)
Writing library                  : VirtualDubMod build 2540/release

Video
ID                               : 0
Format                           : MPEG-4 Visual
Format profile                   : Advanced Simple@L5
Format settings, BVOP            : 2
Format settings, QPel            : No
Format settings, GMC             : No warppoints
Format settings, Matrix          : Default (H.263)
Codec ID                         : XVID
Codec ID/Hint                    : XviD
Duration                         : 1h 40mn
Bit rate                         : 3 000 Kbps
Width                            : 1 280 pixels
Height                           : 720 pixels
Display aspect ratio             : 16:9
Frame rate                       : 23.976 fps
Color space                      : YUV
Chroma subsampling               : 4:2:0
Bit depth                        : 8 bits
Scan type                        : Progressive
Compression mode                 : Lossy
Bits/(Pixel*Frame)               : 0.136
Stream size                      : 2.10 GiB (87%)
Writing library                  : XviD 1.2.1 (UTC 2008-12-04)

Audio
ID                               : 1
Format                           : AC-3
Format/Info                      : Audio Coding 3
Mode extension                   : CM (complete main)
Codec ID                         : 2000
Duration                         : 1h 40mn
Bit rate mode                    : Constant
Bit rate                         : 448 Kbps
Channel(s)                       : 6 channels
Channel positions                : Front: L C R, Side: L R, LFE
Sampling rate                    : 48.0 KHz
Bit depth                        : 16 bits
Compression mode                 : Lossy
Stream size                      : 322 MiB (13%)
Alignment                        : Split accross interleaves
Interleave, duration             : 42 ms (1.00 video frame)
Interleave, preload duration     : 500 ms

